<?xml version='1.0' encoding='utf-8'?>
<!-- Generator: imaengine 6.0   -->
<svg xmlns:xlink="http://www.w3.org/1999/xlink" xmlns="http://www.w3.org/2000/svg" viewBox="0,0,900,900" style="enable-background:new 0 0 900 900;" version="1.1">
<defs/>
<g id="layer0">
<path d="M811.073,835.093C816.83,835.467 821.344,835.046 826.561,832.28C834.713,827.959 838.903,819.871 839.006,810.704C839.413,774.519 837.6,740.124 833.111,685.601C830.502,653.912 830.374,628.3 831.609,570.284C831.692,566.364 831.717,564.606 831.763,562.424C832.587,522.822 832.656,500.053 831.531,475.118C830.469,451.564 830.346,427.811 830.876,394.131C830.971,388.099 831.06,383.24 831.262,372.362C832.034,330.703 832.196,312.161 831.686,288.832C831.195,266.41 831.195,243.229 831.57,213.354C831.682,204.387 831.775,197.191 832.032,181.028C833.062,116.314 833.152,87.503 831.801,51.34C831.621,46.5307 829.579,41.9877 826.099,38.6641C819.85,32.6953 812.123,29.6026 803.405,28.531C800.662,28.1936 798.036,28.047 795.237,28.0686C792.439,28.0903 789.447,28.3019 785.952,28.6081C654.741,40.092 561.259,47.5202 468.051,53.4592C352.132,60.8449 267.519,67.2692 184.209,75.5363C173.543,76.5947 164.264,78.506 148.724,82.4714C147.812,82.7041 147.237,82.8511 145.411,83.3191C126.277,88.2258 117.747,89.9842 107.383,90.524C96.2363,91.1048 87.3202,96.8713 82.3776,106.167C81.7091,107.424 81.1867,108.719 80.6823,110.02C75.1372,114.651 70.9294,120.391 68.0449,127.049C65.0831,133.887 63.6438,141.082 63.0746,149.473C58.5252,216.555 60.8958,286.903 69.2008,368.085C70.3475,379.295 71.527,388.204 74.3251,407.809C74.8686,411.617 75.0768,413.159 75.3654,415.206C79.299,443.043 80.9904,459.528 81.1447,476.968C81.4054,506.535 83.7942,529.781 90.6999,581.227C90.8596,582.417 90.849,582.388 91.0081,583.577C95.8722,619.83 96.1645,654.398 93.5896,712.186C93.6127,712.282 93.6048,712.32 93.6281,712.417C94.0991,714.381 94.2809,714.986 94.5143,715.962C99.1921,735.517 101.372,746.581 102.567,759.037C104.358,777.717 111.268,793.863 123.103,805.426C131.98,814.099 143.688,820.502 156.623,824.151C180.109,824.72 206.414,825.123 243.967,825.384C325.161,825.948 378.191,826.915 432.604,829.236C486.085,831.518 528.818,832.423 624.902,833.783C644.014,834.053 652.476,834.16 663.084,834.322C670.289,834.432 677.027,834.56 683.504,834.669C695.974,834.879 707.796,834.723 726.695,834.245C728.355,834.203 729.685,834.168 732.667,834.091C771.19,833.092 788.118,833.134 808.954,834.939C809.032,834.945 809.027,834.932 809.108,834.939C809.949,835.011 810.461,835.053 811.073,835.093ZM574.121,784.736C526.818,784.733 480.189,784.037 434.107,782.655C422.868,782.318 413.872,782.108 393.69,781.615C389.251,781.506 387.326,781.444 384.867,781.384C336.188,780.18 308.839,779.153 279.029,777.068C274.483,776.751 269.884,776.615 265.467,776.413C264.011,776.038 262.493,775.803 260.92,775.797C254.939,775.775 250.105,775.661 238.92,775.296C221.353,774.723 213.341,774.603 203.165,774.949C188.713,775.441 178.502,771.444 173.421,762.967C170.881,758.729 169.442,754.028 167.218,743.548C166.937,742.224 166.289,741.114 165.754,739.927C167.077,728.522 167.609,716.041 167.835,696.852C167.842,696.203 167.827,696.189 167.835,695.542C167.971,683.836 168.06,678.686 168.335,672.347C169.928,635.67 167.229,604.709 158.896,543.199C152.624,496.906 143.429,449.372 131.309,399.14C123.093,365.089 118.889,332.215 119.096,300.583C119.096,300.519 119.095,300.455 119.096,300.39C123.066,300.961 127.031,301.364 130.962,301.392C147.604,301.511 163.7,296.69 177.659,286.674C206.729,265.816 222.184,229.442 213.183,195.9C206.271,170.145 189.885,146.996 168.22,134.794C166.831,134.011 165.418,133.342 163.982,132.752C185.9,129.807 209.039,127.892 250.479,125.161C251.419,125.099 251.426,125.069 252.367,125.007C282.724,123.006 297.744,121.872 315.477,120.076C325.064,119.104 334.701,118.164 348.303,116.839C350.752,116.601 352.642,116.428 357.126,115.991C407.301,111.114 429.701,108.813 457.648,105.435C506.701,99.5045 535.7,96.6589 566.723,95.3785C597.213,94.1201 628.706,90.9818 664.355,85.9004C696.624,81.3006 730.795,79.48 767.381,79.9669C767.756,80.0235 768.115,80.1256 768.498,80.1596C769.62,80.2591 770.582,80.2935 772.313,80.3908C774.116,80.4918 774.695,80.5606 775.433,80.6219C778.475,91.3032 778.964,103.18 777.591,124.005C777.518,125.112 777.455,125.999 777.321,127.974C776.416,141.335 776.111,147.323 776.166,154.982C776.92,260.672 774.936,371.34 770.463,497.041C770.268,502.541 770.133,506.962 769.77,516.806C769.143,533.783 768.848,541.261 768.537,550.673C767.544,580.694 767.104,604.273 767.188,627.191C767.246,642.916 767.421,655.476 767.92,683.598C768.161,697.139 768.274,703.112 768.383,710.606C768.594,725.219 768.673,737.533 768.653,749.289C768.64,756.69 765.249,765.96 759.059,775.951C756.945,779.363 748.544,781.853 734.323,782.039C734.153,782.041 733.992,782.07 733.823,782.077C733.183,782.104 732.178,782.166 731.549,782.193C726.288,782.415 722.153,782.583 718.18,782.694C669.398,784.046 621.423,784.738 574.121,784.736ZM655.571,702.361C660.787,702.138 665.775,700.556 670.019,697.622C670.316,697.582 670.607,697.6 670.905,697.545C700.924,692.014 710.281,651.58 691.826,630.852C682.429,620.297 668.097,615.04 654.106,615.132C636.118,615.25 618.725,624.216 613.189,642.218C609.057,655.654 612.21,669.57 621.049,679.205C621.077,679.278 621.139,679.408 621.164,679.475C624.98,689.606 634.401,697.803 644.86,700.974C648.435,702.058 652.061,702.511 655.571,702.361ZM663.931,655.317C660.742,654.587 657.691,654.289 652.758,654.316C652.511,654.317 652.295,654.313 651.872,654.316C650.677,654.324 650.302,654.284 649.753,654.277C649.436,653.955 649.051,653.727 648.712,653.43C649.675,652.871 651.21,652.381 653.182,652.235C657.688,651.903 662.009,653.365 663.931,655.279C663.935,655.29 663.928,655.306 663.931,655.317ZM323.221,638.712C336.761,638.67 349.906,631.777 356.587,617.675C363.391,603.313 367.552,591.281 368.993,578.838C369.257,576.561 369.444,574.314 369.494,572.095C369.845,556.563 364.854,542.542 353.505,531.332C330.388,508.498 293.347,501.133 266.699,515.728C258.398,520.274 252.703,527.35 249.631,535.994C247.408,542.25 246.678,548.854 246.819,556.376C246.883,559.795 247.07,562.767 247.512,567.587C247.539,567.879 247.64,569.037 247.666,569.321C247.724,569.956 247.78,570.438 247.82,570.901C249.141,586.105 256.361,598.942 267.932,609.16C275.214,615.59 283.961,620.729 294.016,625.149C295.374,627.582 297.258,629.796 299.719,631.468C306.845,636.313 315.097,638.736 323.221,638.712ZM324.801,597.833C324.525,597.802 324.272,597.696 323.992,597.678C323.992,597.678 323.91,597.665 323.799,597.64C323.576,597.589 323.294,597.506 322.913,597.37C322.003,597.047 321.073,596.659 318.79,595.598C318.502,595.464 318.472,595.467 318.174,595.328C316.062,594.348 314.69,593.725 313.088,593.093C295.018,585.972 285.549,577.568 284.692,567.703C284.646,567.172 284.563,566.619 284.5,565.931C284.472,565.632 284.371,564.475 284.346,564.197C283.98,560.216 283.849,557.964 283.806,555.682C283.741,552.23 284.003,549.799 284.5,548.4C284.584,548.163 284.603,548.121 284.615,548.092C296.138,541.905 315.545,545.803 327.536,557.647C334.925,564.946 333.678,577.806 324.801,597.833ZM601.553,288.947C612.095,288.494 621.681,283.658 628.485,274.73C643.172,255.459 645.84,226.322 630.296,208.422C605.589,179.973 567.704,163.76 535.707,173.091C514.629,179.238 502.912,199.629 502.804,220.52C502.768,227.484 504.021,234.496 506.657,241.056C514.718,261.122 531.927,275.781 553.777,281.087C557.821,282.069 561.185,282.671 567.609,283.746C567.858,283.787 567.824,283.82 568.072,283.861C574.709,284.971 577.565,285.49 580.786,286.327C582.863,286.867 584.927,286.958 586.951,286.79C591.723,288.286 596.597,289.16 601.553,288.947ZM130.924,264.443C127.867,264.401 124.728,264.045 121.561,263.403C120.619,263.211 119.68,263.139 118.749,263.094C118.421,249.307 117.867,233.075 117.015,210.58C116.685,201.874 116.528,197.859 116.36,193.203C119.815,189.77 121.929,185.01 121.831,179.757C121.776,176.807 122.293,173.634 123.257,170.163C123.335,170.162 123.409,170.165 123.488,170.163C128.119,170.027 131.393,169.532 138.553,168.121C139.533,167.928 140.006,167.841 140.556,167.736C144.32,167.013 146.507,166.717 148.185,166.734C149.273,166.745 149.775,166.874 150.073,167.042C162.526,174.056 173,188.809 177.467,205.455C182.236,223.227 173.313,244.287 156.122,256.622C148.666,261.971 140.095,264.569 130.924,264.443ZM599.357,251.767C598.431,251.681 597.155,251.413 595.427,250.534C591.369,248.469 586.899,248.1 582.79,249.07C580.224,248.551 578.371,248.072 574.198,247.375C573.951,247.333 573.942,247.339 573.697,247.298C568.126,246.366 565.433,245.847 562.523,245.14C552.163,242.624 544.509,236.128 540.947,227.263C537.882,219.633 541.206,209.995 546.072,208.576C562.277,203.85 586.257,214.15 602.362,232.695C604.908,235.626 604.036,245.201 599.357,251.767Z" fill="#000000"/>
</g>
</svg>
