<svg xmlns="http://www.w3.org/2000/svg" viewBox="0,0,900,900" version="1.1" fill="none"><path d="M671.663,853.998C688.238,853.007 709.319,856.515 720.604,850.234C733.434,845.497 750.693,845.184 761.074,837.999C772.334,831.692 783.608,825.394 793.073,817.293C802.872,809.895 812.255,800.749 819.426,791.882C827.325,782.215 834.393,771.711 839.19,758.941C845.02,747.205 850.758,735.371 852.366,719.413C858.535,708.015 858.557,690.465 858.013,672.355C856.798,656.372 849.121,645.521 847.66,630.943C843.067,617.971 838.148,605.317 830.719,595.179C825.188,583.144 815.914,574.847 808.132,565.062C799.434,556.194 790.888,547.167 780.838,539.651C772.742,530.55 761.839,522.925 753.544,515.181C744.188,506.971 733.066,500.52 729.074,486.946C730.262,472.958 728.857,456.165 715.898,451.182C699.3,448.072 681.942,457.175 673.546,444.594C663.897,437.045 654.033,428.381 645.311,421.065C635.939,412.87 628.808,402.429 618.017,395.654C609.411,386.693 598.223,380.31 589.782,371.183C579.514,364.428 567.988,355.414 574.724,337.302C572.148,323.393 555.281,319.246 540.842,321.302C526.747,317.831 519.024,307.982 509.784,299.655C500.488,291.385 493.255,281.046 482.49,274.244C473.707,265.461 464.921,256.675 456.138,247.891C447.711,239.121 437.682,230.621 430.726,221.539C419.411,210.393 429.997,194.16 423.197,182.01C419.976,167.665 393.853,176.216 383.668,168.834C374.885,160.051 366.099,151.265 357.316,142.481C349.444,133.155 340.345,123.726 332.846,115.188C325.895,104.572 316.344,96.5516 306.493,88.8353C296.937,81.1937 288.643,70.9595 277.317,66.2475C264.831,61.1675 254.953,53.4732 240.612,50.2478C229.582,44.08 212.4,42.7343 195.436,43.6597C176.428,42.2179 162.246,45.608 150.261,51.189C136.875,55.3695 125.974,62.0403 115.438,69.071C103.859,75.0587 96.2693,85.0408 87.203,93.5411C79.3154,102.851 73.6097,115.673 66.4975,124.599C60.3074,135.976 57.1936,150.434 52.3801,163.187C47.2254,175.599 47.4012,193.346 47.6743,211.186C47.4174,229.01 48.512,245.487 55.2036,256.362C56.6125,272.151 64.4864,282.805 68.3799,294.949C74.395,306.501 81.0218,317.446 87.203,328.831C92.8145,340.786 99.5893,351.583 106.026,362.713C112.201,374.105 119.099,384.778 125.791,395.654C129.229,405.239 148,418.343 134.261,427.653C122.587,433.119 122.703,454.234 128.614,465.299C136.676,477.356 155.076,473.742 166.26,467.182C179.223,471.786 180.958,487.623 191.672,494.475C197.872,505.472 205.531,516.342 213.318,524.592C221.672,533.806 228.904,544.145 236.847,553.768C244.519,563.663 251.942,573.813 261.318,582.003C268.825,591.324 281.94,597.694 280.141,614.003C272.4,609.743 272.515,641.563 283.905,643.179C293.549,655.823 315.819,639.951 326.258,647.884C337.059,654.649 343.578,665.703 354.492,672.355C365.161,679.252 374.111,687.874 383.668,695.884C393.106,703.643 403.932,711.346 413.786,717.53C423.184,725.699 434.421,732.033 444.844,739.177C454.494,747.093 467.177,751.982 475.902,760.824C485.074,770.053 473.756,794.303 489.078,798.47C502.631,808.744 519.346,797.378 525.784,790.941C540.183,794.108 548.531,803.332 560.607,808.823C572.785,813.842 584.299,820.856 594.488,826.705C604.28,834.48 618.766,837.565 630.252,843.646C644.61,846.485 661.306,848.318 671.663,853.998ZM684.84,776.823C696.911,776.157 713.996,778.917 719.663,773.059C727.781,770.02 730.529,755.858 728.133,747.647C727.847,735.386 719.628,731.054 710.251,727.883C699.207,726.38 684.555,728.481 676.369,724.118C667.414,720.335 655.573,717.851 649.076,712.824C639.771,709.582 632.762,704.039 624.605,699.648C616.213,695.493 608.447,690.708 600.135,686.472C590.877,683.183 584.846,676.663 575.665,673.296C567.788,668.435 558.739,663.159 552.136,658.237C544.403,653.423 536.335,648.939 528.607,644.12C519.983,640.197 513.67,633.957 506.019,629.061C499.31,623.223 491.37,618.612 483.431,614.003C477.858,606.838 467.788,602.583 461.785,597.062C454.463,591.836 447.159,586.588 441.079,580.121C435.729,572.923 426.818,569.284 421.315,562.239C413.039,557.967 406.676,551.779 400.609,545.298C394.022,539.147 387.432,531.412 380.845,526.475C374.857,519.915 368.429,513.792 362.963,506.71C356.629,500.497 350.06,494.514 345.081,486.946C340.502,478.978 333.226,473.702 327.199,467.182C321.63,460.012 315.012,452.306 310.258,445.535C305.774,437.471 299.515,431.179 294.258,423.888C288.55,417.049 283.508,409.54 279.2,401.3C273.278,394.674 268.401,387.001 263.2,379.654C258.519,371.596 253.18,362.611 248.141,356.125C243.815,347.904 237.828,341.339 234.024,332.596C229.346,324.726 223.892,317.629 219.907,309.067C214.58,301.846 210.981,292.894 205.789,285.538C202.328,276.452 196.279,269.949 192.613,261.068C187.026,254.107 184.442,244.14 179.437,236.597C176.459,227.027 174.083,216.853 173.79,204.598C174.734,195.003 171.644,182.561 165.319,177.304C159.928,169.403 143.668,172.561 135.202,174.481C126.06,176.92 123.691,190.083 125.791,200.833C126.274,212.898 124.783,226.939 126.732,237.539C130.105,246.713 134.348,255.022 138.026,263.891C141.521,273.134 148.244,280.736 151.202,289.302C156.372,296.68 160.694,304.909 165.319,312.831C168.559,322.14 174.552,328.698 178.496,337.302C183.852,344.493 188.292,352.604 192.613,360.831C197.562,368.62 202.952,377.554 207.672,384.36C212.203,392.376 217.538,399.592 221.789,407.889C227.802,414.423 231.482,423.294 237.789,429.535C242.714,437.157 247.469,444.953 252.847,452.123C258.904,458.804 264.517,467.516 269.788,473.77C274.06,482.045 280.248,488.409 286.729,494.475C291.685,502.067 298.462,507.841 303.67,515.181C308.945,522.453 314.322,529.628 320.611,535.886C327.35,541.886 333.584,549.976 339.434,555.651C345.708,561.924 351.983,568.2 358.257,574.474C365.109,580.17 369.776,588.054 378.021,592.356C384.42,598.505 391.613,603.863 398.727,609.297C404.307,616.455 413.607,621.48 419.433,627.179C426.354,632.805 432.904,638.806 441.079,643.179C448.301,648.504 455.312,654.045 462.726,659.178C469.866,664.585 477.56,669.443 485.314,674.237C492.336,679.953 501.628,684.986 507.902,690.237C516.149,694.537 522.96,700.277 531.431,704.354C538.859,709.473 548.217,712.666 554.96,718.471C562.504,723.475 571.586,726.944 579.43,731.648C587.651,735.974 594.215,741.961 602.959,745.765C610.838,750.433 620.643,753.179 628.37,758C636.881,762.036 644.557,766.912 655.664,768.353C666.893,769.671 673.258,775.858 684.84,776.823ZM747.897,674.237C763.002,675.207 776.201,672.212 779.897,659.178C782.938,639.825 774.003,632.444 761.074,629.061C749.494,622.312 736.824,634.986 732.839,644.12C729.422,656.709 736.063,671.686 747.897,674.237ZM808.132,669.531C808.535,681.805 811.302,701.748 805.308,710.001C801.488,720.833 797.552,733.015 793.073,742C787.106,751.09 781.281,760.327 774.25,768.353C767.657,776.411 756.857,781.731 749.78,788.117C741.32,794.715 727.839,796.295 716.839,800.352C709.762,807.926 689.799,804.083 677.31,805.058C664.71,803.007 655.447,796.151 643.429,794.705C633.851,789.631 622.069,785.295 614.253,779.647C603.445,775.397 593.779,770.002 584.136,764.588C573.272,760.8 565.136,752.818 554.96,749.53C545.493,744.344 536.713,737.006 527.666,732.589C517.967,727.636 508.306,721.179 499.431,716.589C492.349,708.615 480.622,705.28 473.079,697.766C464.491,691.702 454.242,685.832 445.785,680.825C438.978,672.98 428.407,667.433 421.315,661.061C410.762,656.962 405.115,646.49 396.845,641.296C386.589,636.494 380.466,627.557 371.433,621.532C363.851,614.462 354.188,608.007 348.846,599.885C341.317,592.762 333.786,584.174 326.258,578.239C319.135,570.71 310.547,563.179 304.611,555.651C297.008,548.197 289.214,540.929 282.964,532.122C275.897,524.537 269.66,514.655 263.2,507.652C257.183,499.017 248.978,491.103 243.436,483.181C238.391,473.574 230.476,465.37 225.554,456.829C218.413,448.912 213.856,438.408 205.789,431.418C199.665,422.89 194.511,411.926 188.848,404.124C183.881,394.44 176.968,385.234 171.907,376.83C167.416,366.67 159.568,358.399 155.908,348.596C149.832,339.614 143.817,330.567 138.967,320.361C133.219,311.457 127.781,300.776 122.967,292.126C118.924,281.517 111.542,272.78 107.909,262.95C105.892,250.315 98.1672,241.921 98.497,228.127C97.3094,215.068 97.3092,197.893 98.497,184.834C98.3803,170.065 105.672,161.238 109.791,151.893C114.592,141.637 119.941,131.925 126.732,123.658C132.9,115.175 143.687,109.843 151.202,103.894C161.295,98.9304 171.685,94.2585 185.084,92.6C200.419,91.9159 215.366,93.0878 224.612,97.3058C235.085,101.485 247.346,105.343 254.73,111.423C264.243,116.561 271.891,125.032 279.2,131.188C286.728,138.716 294.259,146.247 301.788,153.775C307.632,162.582 316.482,169.851 322.493,177.304C330.994,183.455 336.021,194.547 344.14,199.892C350.572,208.112 357.792,217.011 364.845,223.421C370.781,232.543 379.369,239.016 386.492,246.95C393.714,254.379 399.605,264.607 408.139,269.538C415.262,277.067 423.85,284.597 429.785,292.126C437.442,299.12 444.973,307.708 452.373,313.773C459.902,321.301 467.432,328.832 474.961,336.36C483.148,342.825 492.303,349.789 499.431,356.125C505.763,364.445 516.024,370.303 522.019,377.771C531.307,383.135 537.281,393.279 545.548,398.477C552.73,406.352 560.673,413.471 569.077,420.124C578.234,425.618 586.369,433.602 593.547,439.888C601.135,446.952 610.339,453.867 617.076,460.594C624.124,468.197 632.45,475.99 639.664,482.24C649.251,487.711 656.34,495.683 665.075,502.005C671.407,510.325 681.668,516.183 687.663,523.651C694.4,531.566 703.604,538.481 711.192,544.357C719.346,550.854 727.453,558.866 734.721,565.062C742.779,572.061 751.133,578.769 759.191,585.768C766.795,592.816 774.588,601.142 780.838,608.356C786.703,617.142 792.025,627.939 796.838,636.59C799.903,648.176 806.718,657.481 808.132,669.531ZM623.664,647.884C640.122,649.69 650.406,643.856 650.958,630.943C652.92,614.552 647.068,605.97 634.017,604.591C618.669,600.635 607.403,607.246 607.665,620.591C608.084,634.601 611.522,645.596 623.664,647.884ZM600.135,548.121C599.2,548.767 624.125,549.304 624.605,535.886C627.795,523.911 625.511,503.572 613.311,502.946C596.653,499.094 583.227,504.998 583.194,518.945C578.251,536.33 587.695,546.374 600.135,548.121ZM481.549,546.239C494.34,544.482 503.576,534.95 502.255,521.769C498.872,509.863 491.25,500.766 475.902,502.005C460.163,501.95 452.841,510.317 454.255,527.416C455.117,541.843 466.835,546.845 481.549,546.239ZM450.491,422.006C466.108,421.311 473.408,412.294 476.843,399.418C475.598,384.352 466.705,376.928 454.255,373.066C438.606,373.728 430.285,381.723 427.903,395.654C428.388,411.48 436.826,419.359 450.491,422.006ZM318.728,395.654C337.274,397.887 347.392,391.689 347.904,375.889C350.468,357.401 340.98,349.567 328.14,347.654C313.492,346.199 306.036,357.069 300.846,367.419C298.408,382.664 308.297,392.105 318.728,395.654ZM292.376,267.656C309.151,268.746 320.503,264.409 322.493,250.715C324.737,233.183 317.353,223.847 303.67,223.421C289.225,220.824 277.681,227.813 274.494,239.421C274.045,255.159 281.619,264.304 292.376,267.656Z" fill="#000" /></svg>
